<svg preserveAspectRatio="none" overflow="visible" style="display: block;" width="22" height="22.0014" viewBox="0 0 22 22.0014" fill="none" xmlns="http://www.w3.org/2000/svg">
<path id="Vector" d="M7.6158 17.2565H0.677643C0.487849 17.2565 0.334143 17.1008 0.334143 16.9084V7.42141C0.334143 7.22907 0.487849 7.0733 0.677643 7.0733C1.30583 7.0733 1.89526 7.32118 2.339 7.77088C2.78275 8.22058 3.02734 8.81792 3.02734 9.45454V15.1625H6.43159C7.27363 15.1625 7.95796 15.856 7.95796 16.7093V16.9084C7.95796 17.1008 7.80425 17.2565 7.61446 17.2565M1.02248 16.559H7.25893C7.18943 16.1607 6.84593 15.8587 6.43293 15.8587H2.68384C2.49405 15.8587 2.34034 15.7029 2.34034 15.5106V9.45454C2.34034 9.00484 2.16792 8.58088 1.85383 8.26392C1.6226 8.02959 1.33524 7.87247 1.02248 7.80609V16.5603V16.559ZM1.05456 22C0.864763 22 0.711057 21.8443 0.709721 21.6519C0.709721 21.6357 0.709721 21.6208 0.712394 21.6059L1.33925 16.8624C1.36331 16.6714 1.53439 16.5359 1.72284 16.5603C1.9113 16.5847 2.04496 16.7581 2.0209 16.9491C2.0209 16.9504 2.0209 16.9531 2.0209 16.9545L1.39405 21.698C1.37132 21.8714 1.22564 22 1.05322 22M7.40595 22C7.23888 22 7.09587 21.8768 7.0678 21.7102L6.27388 16.9667C6.2418 16.777 6.36744 16.5969 6.55589 16.5644C6.74301 16.5319 6.92078 16.6605 6.95286 16.8502L7.74678 21.5937C7.77886 21.7833 7.65188 21.9635 7.46476 21.996C7.44605 21.9987 7.426 22.0014 7.40729 22.0014M21.4066 17.2565H14.4697C14.28 17.2565 14.1262 17.1008 14.1262 16.9084V16.7093C14.1262 15.856 14.8106 15.1625 15.6526 15.1625H19.0569V9.45454C19.0569 8.81792 19.3015 8.22058 19.7452 7.77088C20.1889 7.32118 20.7784 7.0733 21.4066 7.0733C21.5964 7.0733 21.7501 7.22907 21.7501 7.42141V16.9084C21.7501 17.1008 21.5964 17.2565 21.4066 17.2565ZM14.8253 16.559H21.0617V7.80474C20.749 7.87111 20.4616 8.02823 20.2304 8.26257C19.9163 8.58088 19.7439 9.00348 19.7439 9.45318V15.5092C19.7439 15.7016 19.5902 15.8573 19.4004 15.8573H15.6513C15.2396 15.8573 14.8948 16.1607 14.8253 16.5576M21.0296 22C20.8572 22 20.7115 21.8714 20.6888 21.698L20.062 16.9545C20.0366 16.7635 20.1689 16.5888 20.3574 16.563C20.5458 16.5373 20.7182 16.6714 20.7436 16.8624L21.3705 21.6059C21.3959 21.7969 21.2635 21.9716 21.0751 21.9973C21.0604 22 21.0443 22 21.0296 22ZM14.6783 22C14.4885 22 14.3348 21.8443 14.3334 21.6519C14.3334 21.633 14.3348 21.6126 14.3388 21.5937L15.1327 16.8502C15.1648 16.6605 15.3425 16.5332 15.5296 16.5644C15.7168 16.5969 15.8424 16.777 15.8117 16.9667L15.0177 21.7102C14.9897 21.8781 14.8467 22 14.6796 22M16.3075 12.8517H5.6096C4.95869 12.8517 4.4294 12.3153 4.4294 11.6556C4.4294 10.996 4.95869 10.4596 5.6096 10.4596H16.3075C16.9584 10.4596 17.4864 10.996 17.4864 11.6556C17.4864 12.3153 16.9571 12.8517 16.3075 12.8517ZM5.6096 11.1572C5.33827 11.1572 5.11774 11.3807 5.11774 11.6556C5.11774 11.9306 5.33827 12.1541 5.6096 12.1541H16.3075C16.5789 12.1541 16.7994 11.9306 16.7994 11.6556C16.7994 11.3807 16.5789 11.1572 16.3075 11.1572H5.6096ZM11.2927 14.7155H10.6244C9.99623 14.7155 9.4068 14.4676 8.96306 14.0179C8.57011 13.6197 8.32953 13.0941 8.28275 12.532C8.26671 12.3396 8.40838 12.1717 8.59684 12.1568C8.78663 12.1405 8.95237 12.2841 8.96707 12.4751C8.99915 12.872 9.17023 13.2445 9.44824 13.5248C9.76233 13.8432 10.1793 14.0179 10.6231 14.0179H11.2914C12.1495 14.0179 12.8765 13.3393 12.9474 12.4737C12.9634 12.2814 13.1292 12.1392 13.3176 12.1554C13.5074 12.1717 13.6478 12.3396 13.6317 12.5306C13.5328 13.7551 12.5036 14.7141 11.29 14.7141M21.6565 21.9987H0.343499C0.153706 21.9987 0 21.8429 0 21.6506C0 21.4582 0.153706 21.3025 0.343499 21.3025H21.6565C21.8463 21.3025 22 21.4582 22 21.6506C22 21.8429 21.8463 21.9987 21.6565 21.9987ZM12.7135 21.9987C12.6908 21.9987 12.668 21.996 12.6467 21.9919C12.6253 21.9878 12.6039 21.9811 12.5825 21.9716C12.5611 21.9635 12.5411 21.9526 12.5224 21.9404C12.4849 21.9147 12.4529 21.8822 12.4275 21.8443C12.4154 21.8253 12.4047 21.805 12.3967 21.7833C12.3887 21.763 12.3807 21.74 12.3767 21.7183C12.3727 21.6953 12.37 21.6736 12.37 21.6506C12.37 21.6275 12.3727 21.6059 12.3767 21.5828C12.3807 21.5612 12.3874 21.5395 12.3967 21.5178C12.4047 21.4975 12.4154 21.4772 12.4275 21.4582C12.4395 21.4393 12.4542 21.4217 12.4702 21.4054C12.4863 21.3892 12.5036 21.3743 12.5224 21.3621C12.5411 21.3499 12.5611 21.339 12.5825 21.3309C12.6453 21.3038 12.7148 21.297 12.7817 21.3106C12.803 21.3147 12.8244 21.3214 12.8458 21.3309C12.8659 21.339 12.8859 21.3499 12.9046 21.3621C12.9233 21.3743 12.9407 21.3892 12.9567 21.4054C12.9728 21.4217 12.9875 21.4393 12.9995 21.4582C13.0236 21.4962 13.0409 21.5395 13.0503 21.5842C13.0583 21.6289 13.0583 21.675 13.0503 21.721C13.0463 21.7427 13.0396 21.7643 13.0303 21.786C13.0222 21.8077 13.0115 21.828 12.9995 21.847C12.9875 21.8659 12.9728 21.8835 12.9567 21.8998C12.9407 21.9161 12.9233 21.931 12.9046 21.9431C12.8859 21.9553 12.8659 21.9662 12.8445 21.9743C12.8244 21.9824 12.8017 21.9892 12.7803 21.9946C12.7576 21.9987 12.7362 22.0014 12.7135 22.0014M13.7092 6.79563H8.29077C8.03414 6.79563 7.80826 6.62767 7.73208 6.37979C7.6599 6.14817 7.73341 5.89488 7.9192 5.74182L10.5242 2.87838L10.5683 0.342727C10.571 0.150386 10.7287 -0.00267361 10.9185 3.54121e-05C11.1083 0.00274444 11.2593 0.162577 11.2566 0.354918L11.2125 2.87431L14.0621 5.72692C14.2586 5.87456 14.3428 6.12785 14.2733 6.36896C14.1998 6.62496 13.9739 6.79698 13.7106 6.79698M8.53001 6.09805H13.4553L10.877 3.51771L8.53001 6.09805ZM10.9586 21.9987C10.7688 21.9987 10.6151 21.8429 10.6151 21.6506V14.5353C10.6151 14.343 10.7688 14.1872 10.9586 14.1872C11.1484 14.1872 11.3021 14.343 11.3021 14.5353V21.6506C11.3021 21.8429 11.1484 21.9987 10.9586 21.9987Z" fill="white"/>
</svg>
